<svg width="1184.566" height="296.195" viewBox="0 0 313.417 78.368" xml:space="preserve" xmlns:xlink="http://www.w3.org/1999/xlink" xmlns="http://www.w3.org/2000/svg"><defs><linearGradient id="d"><stop style="stop-color:#ffd318;stop-opacity:1" offset="0"/><stop style="stop-color:#f27b0f;stop-opacity:1" offset="1"/></linearGradient><linearGradient id="c"><stop style="stop-color:#ffd318;stop-opacity:1" offset="0"/><stop style="stop-color:#f27b0f;stop-opacity:1" offset="1"/></linearGradient><linearGradient id="a"><stop style="stop-color:#ffd318;stop-opacity:1" offset="0"/><stop style="stop-color:#f27b0f;stop-opacity:1" offset="1"/></linearGradient><linearGradient id="b"><stop style="stop-color:#ffd318;stop-opacity:1" offset="0"/><stop style="stop-color:#f27b0f;stop-opacity:1" offset="1"/></linearGradient><linearGradient id="e"><stop style="stop-color:#f27b0f;stop-opacity:1" offset="0"/><stop style="stop-color:#ffd318;stop-opacity:1" offset="1"/></linearGradient><linearGradient xlink:href="#a" id="h" x1="86.186" y1="36.214" x2="99.161" y2="34.109" gradientUnits="userSpaceOnUse" gradientTransform="matrix(-1 0 0 1 245.156 0)"/><linearGradient xlink:href="#b" id="i" x1="102.469" y1="38.443" x2="116.437" y2="41.401" gradientUnits="userSpaceOnUse" gradientTransform="matrix(-1 0 0 1 245.156 0)"/><linearGradient xlink:href="#c" id="g" x1="111.656" y1="65.549" x2="140.246" y2="69.777" gradientUnits="userSpaceOnUse" gradientTransform="matrix(-1 0 0 1 245.156 0)"/><linearGradient xlink:href="#d" id="f" x1="141.661" y1="81.53" x2="164.356" y2="81.53" gradientUnits="userSpaceOnUse" gradientTransform="matrix(-.99172 0 0 1.01416 243.794 -1.043)"/><linearGradient xlink:href="#e" id="j" x1="89.043" y1="34.266" x2="116.995" y2="34.266" gradientUnits="userSpaceOnUse"/></defs><path d="M85.555 127.831q-4.687 0-8.948-1.278-4.19-1.279-6.605-3.125l2.841-5.397q2.415 1.633 5.966 2.77 3.55 1.136 7.244 1.136 4.758 0 6.817-1.35 2.13-1.35 2.13-3.764 0-1.775-1.277-2.77-1.279-.994-3.41-1.49-2.059-.498-4.615-.853-2.557-.426-5.114-.994-2.556-.64-4.687-1.705-2.13-1.136-3.409-3.054-1.278-1.988-1.278-5.255 0-3.409 1.917-5.966 1.918-2.556 5.398-3.906 3.55-1.42 8.38-1.42 3.693 0 7.457.923 3.835.853 6.25 2.486L97.7 98.216q-2.557-1.704-5.327-2.343-2.77-.64-5.54-.64-4.473 0-6.675 1.492-2.202 1.42-2.202 3.693 0 1.917 1.279 2.983 1.35.994 3.409 1.562 2.13.568 4.687.994 2.557.355 5.113.995 2.557.568 4.616 1.633 2.131 1.065 3.41 2.983 1.349 1.917 1.349 5.113 0 3.41-1.989 5.895-1.988 2.485-5.61 3.906-3.622 1.35-8.665 1.35zM119.502 127.405l-16.476-37.64h7.102l14.63 34.089h-3.41l14.915-34.089h6.675l-16.476 37.64z" style="font-weight:500;font-size:71.0185px;line-height:.8;font-family:Montserrat;-inkscape-font-specification:'Montserrat Medium';letter-spacing:0;fill:#1e6f9e;fill-opacity:1;stroke-width:1.77547" transform="translate(-19.287 -63.24)"/><path d="M152.739 84.638q-1.989 0-3.338-1.278-1.278-1.279-1.278-3.125 0-1.918 1.278-3.196 1.35-1.278 3.338-1.278t3.267 1.278q1.349 1.207 1.349 3.054 0 1.917-1.278 3.267-1.279 1.278-3.338 1.278z" style="font-weight:500;font-size:71.0185px;line-height:.8;font-family:Montserrat;-inkscape-font-specification:'Montserrat Medium';letter-spacing:0;fill:#f9a914;fill-opacity:1;stroke-width:1.77547" transform="translate(-19.287 -63.24)"/><path d="M149.33 127.405v-37.64h6.818v37.64zM170.777 141.609q-2.698 0-5.255-.924-2.557-.852-4.403-2.556l2.912-5.114q1.42 1.35 3.124 2.06 1.705.71 3.622.71 2.486 0 4.12-1.278 1.633-1.279 3.053-4.545l2.344-5.185.71-.852 14.772-34.16h6.676L184.2 131.17q-1.633 3.977-3.693 6.25-1.989 2.272-4.403 3.195-2.415.995-5.327.995zm8.949-12.997-17.187-38.847h7.102l14.63 33.52z" style="font-weight:500;font-size:71.0185px;line-height:.8;font-family:Montserrat;-inkscape-font-specification:'Montserrat Medium';letter-spacing:0;fill:#1e6f9e;fill-opacity:1;stroke-width:1.77547" transform="translate(-19.287 -63.24)"/><path d="M200.703 127.831q-1.989 0-3.41-1.35-1.42-1.42-1.42-3.55t1.42-3.48q1.421-1.35 3.41-1.35 1.917 0 3.266 1.35 1.42 1.35 1.42 3.48t-1.42 3.55q-1.349 1.35-3.266 1.35z" style="font-weight:500;font-size:71.0185px;line-height:.8;font-family:Montserrat;-inkscape-font-specification:'Montserrat Medium';letter-spacing:0;fill:#f9a914;fill-opacity:1;stroke-width:1.77547" transform="translate(-19.287 -63.24)"/><path d="M225.985 127.831q-4.687 0-8.948-1.278-4.19-1.279-6.605-3.125l2.84-5.397q2.415 1.633 5.966 2.77 3.551 1.136 7.244 1.136 4.758 0 6.818-1.35 2.13-1.35 2.13-3.764 0-1.775-1.278-2.77-1.278-.994-3.409-1.49-2.06-.498-4.616-.853-2.557-.426-5.113-.994-2.557-.64-4.687-1.705-2.131-1.136-3.41-3.054-1.278-1.988-1.278-5.255 0-3.409 1.918-5.966 1.917-2.556 5.397-3.906 3.551-1.42 8.38-1.42 3.693 0 7.457.923 3.835.853 6.25 2.486l-2.912 5.397q-2.556-1.704-5.326-2.343-2.77-.64-5.54-.64-4.474 0-6.675 1.492-2.202 1.42-2.202 3.693 0 1.917 1.278 2.983 1.35.994 3.41 1.562 2.13.568 4.687.994 2.556.355 5.113.995 2.557.568 4.616 1.633 2.13 1.065 3.409 2.983 1.35 1.917 1.35 5.113 0 3.41-1.99 5.895-1.988 2.485-5.61 3.906-3.622 1.35-8.664 1.35z" style="font-weight:500;font-size:71.0185px;line-height:.8;font-family:Montserrat;-inkscape-font-specification:'Montserrat Medium';letter-spacing:0;fill:#1e6f9e;fill-opacity:1;stroke-width:1.77547" transform="translate(-19.287 -63.24)"/><path style="font-weight:500;font-size:71.0185px;line-height:.8;font-family:Montserrat;-inkscape-font-specification:'Montserrat Medium';letter-spacing:0;fill:#f9a914;fill-opacity:1;stroke-width:1.77547" d="M254.18 84.638q-1.99 0-3.339-1.278-1.278-1.279-1.278-3.125 0-1.918 1.278-3.196 1.35-1.278 3.338-1.278 1.989 0 3.267 1.278 1.35 1.207 1.35 3.054 0 1.917-1.279 3.267-1.278 1.278-3.338 1.278z" transform="translate(-19.287 -63.24)"/><path style="font-weight:500;font-size:71.0185px;line-height:.8;font-family:Montserrat;-inkscape-font-specification:'Montserrat Medium';letter-spacing:0;fill:#1e6f9e;fill-opacity:1;stroke-width:1.77547" d="M250.77 127.405v-37.64h6.818v37.64zM283.51 127.831q-5.682 0-8.806-3.054-3.125-3.054-3.125-8.735V81.527h6.818v34.23q0 3.055 1.491 4.688 1.562 1.634 4.403 1.634 3.196 0 5.327-1.776l2.13 4.9q-1.562 1.35-3.764 1.989-2.13.64-4.474.64zm-18.323-32.455v-5.61h24.004v5.61zM315.446 127.831q-6.036 0-10.653-2.486-4.545-2.485-7.101-6.817-2.486-4.332-2.486-9.943 0-5.61 2.415-9.943 2.485-4.332 6.746-6.746 4.332-2.486 9.73-2.486 5.468 0 9.658 2.415 4.19 2.414 6.534 6.817 2.415 4.333 2.415 10.156 0 .426-.071.994 0 .569-.071 1.066h-32.03v-4.9h28.479l-2.77 1.704q.071-3.622-1.491-6.463-1.563-2.84-4.333-4.403-2.698-1.633-6.32-1.633-3.551 0-6.32 1.633-2.77 1.562-4.333 4.474-1.562 2.84-1.562 6.534v1.136q0 3.764 1.704 6.747 1.776 2.912 4.9 4.545 3.125 1.634 7.173 1.634 3.338 0 6.037-1.137 2.77-1.136 4.83-3.409l3.763 4.403q-2.557 2.983-6.392 4.546-3.764 1.562-8.45 1.562z" transform="translate(-19.287 -63.24)"/><g style="display:inline"><path d="M103.307 73.64 80.8 75.778l18.333 13.866Z" style="display:inline;fill:url(#f);fill-opacity:1;stroke-width:.169819" transform="matrix(.69243 0 0 .69243 -55.949 -11.224)"/><path d="M139.725 65.182 126.401 41.32l-9.471-16.615-7.769 28.052-5.886 20.91-4.21 15.98Z" style="display:inline;fill:url(#g);fill-opacity:1;stroke-width:.169333" transform="matrix(.69243 0 0 .69243 -55.949 -11.224)"/><path d="m145.995 40.554 18.36-3.981-14.817-8.91" style="display:inline;fill:url(#h);fill-opacity:1;stroke-width:.169333" transform="matrix(.69243 0 0 .69243 -55.949 -11.224)"/><path d="M139.674 65.27c3.147-12.577 6.466-25.107 9.89-37.61l-23.126 13.902" style="display:inline;fill:url(#i);fill-opacity:1;stroke-width:.169333" transform="matrix(.69243 0 0 .69243 -55.949 -11.224)"/><path d="M116.995 24.816 89.043 16.21l20.304 36.112" style="display:inline;fill:url(#j);fill-opacity:1;stroke-width:.169333" transform="matrix(.69243 0 0 .69243 -55.949 -11.224)"/></g></svg>